<?xml version="1.0" ?><svg viewBox="0 0 512 512" xmlns="http://www.w3.org/2000/svg"><g id="Dental_Implant"><path d="M436.3369,267.9253l.0054-.0122a442.3059,442.3059,0,0,0-52.4357-20.1487l14.5514-84.1179a105.7882,105.7882,0,0,0-45.0376-108.2c-21.8887-14.6939-50.3433-15.9424-74.2588-3.2568a50.3872,50.3872,0,0,1-46.3232,0c-23.917-12.686-52.3711-11.4379-74.2588,3.2564a105.7882,105.7882,0,0,0-45.0376,108.2l14.5521,84.1222a442.2733,442.2733,0,0,0-51.3695,19.6585l-1.0483.4776a8,8,0,0,0-4.6836,7.28V460.4922a8,8,0,0,0,8,8H433.0068a8,8,0,0,0,8-8V275.7163C441.0068,271.4419,438.7759,269.0273,436.3369,267.9253Zm-292.8-24.7495-14.2436-82.3394c-.01-.0561-.02-.1118-.0308-.1679a89.8226,89.8226,0,0,1,38.2349-91.938c16.9829-11.4009,39.1469-12.3228,57.8437-2.4058a66.3811,66.3811,0,0,0,61.3174-.0005c18.6963-9.9165,40.86-8.9951,57.8437,2.4063a89.8226,89.8226,0,0,1,38.2349,91.938c-.0107.0561-.021.1118-.0308.1679l-14.2436,82.3394h-.2683a426.8293,426.8293,0,0,0-49.72-10.3878l4.2916-33.3861a8,8,0,0,0-7.9346-9.02H196.668a8,8,0,0,0-7.9346,9.02l4.301,33.4585a426.8409,426.8409,0,0,0-49.2174,10.3154Zm62.2251-36.794h99.9756l-4.72,36.7159H210.4818ZM255.75,420.5889A25.6531,25.6531,0,0,1,230.4863,398.72l-11.935-92.8467h74.3974L281.0137,398.72A25.6531,25.6531,0,0,1,255.75,420.5889ZM187.2666,289.873l-6.5629-30.6972H331.2963l-6.5629,30.6972Z"/></g></svg>