<?xml version="1.0" ?><svg viewBox="0 0 512 512" xmlns="http://www.w3.org/2000/svg"><g id="Healthy_Tooth"><path d="M459.8682,343.6719a512.2015,512.2015,0,0,0-73.48-24.3916l15.2937-78.4751A105.7874,105.7874,0,0,0,356.6611,132.52c-21.89-14.6938-50.3418-15.9419-74.2588-3.2568a50.3858,50.3858,0,0,1-46.3227.0005c-23.9165-12.6865-52.3721-11.438-74.2588,3.2563a105.788,105.788,0,0,0-45.0215,108.2842l.643,3.2994-12.5317-6.8541v0A24.0284,24.0284,0,0,1,93.645,223.8218L83.0356,192.42a8,8,0,0,0-15.1582,0L57.2681,223.8218a24.0281,24.0281,0,0,1-11.2657,13.4267L30.2646,245.856a8,8,0,0,0,0,14.038l15.7378,8.607a24.03,24.03,0,0,1,11.2657,13.4272L67.8774,313.33a8,8,0,0,0,15.1582,0L93.645,281.9282a24.03,24.03,0,0,1,11.2656-13.4272l15.6216-8.5437,11.882,60.9673a512.85,512.85,0,0,0-65.8854,22.2629l-1.15.4775a8,8,0,0,0-4.9316,7.3882v103.565a8,8,0,0,0,8,8H456.7812a8,8,0,0,0,8-8V351.0532A8.001,8.001,0,0,0,459.8682,343.6719ZM97.2329,254.4629a39.9889,39.9889,0,0,0-18.7461,22.3442l-3.03,8.9688-3.03-8.9688A39.9878,39.9878,0,0,0,53.68,254.4629l-2.9038-1.5879,2.9043-1.5884a39.99,39.99,0,0,0,18.7461-22.3437l3.03-8.9688,3.03,8.9688a39.99,39.99,0,0,0,18.7461,22.3437v0l2.9043,1.5889Zm73.5059-108.6592c16.9829-11.4009,39.1465-12.3227,57.8437-2.4058a66.3818,66.3818,0,0,0,61.3179,0c18.6943-9.9165,40.86-8.9947,57.8428,2.4062a89.82,89.82,0,0,1,38.2343,91.94L353.7266,403.2251a22.7182,22.7182,0,0,1-44.0332,2.2661L289.8369,340.22a31.9806,31.9806,0,0,0-61.1924,0l-19.8564,65.2705a22.7184,22.7184,0,0,1-44.0337-2.2656l-32.251-165.4834A89.8224,89.8224,0,0,1,170.7388,145.8037Z"/><path d="M486.7354,121.562l-19.3545-10.5854A31.3847,31.3847,0,0,1,452.666,93.439L439.6191,54.8213a8,8,0,0,0-15.1582,0L411.4131,93.439a31.3869,31.3869,0,0,1-14.7139,17.5376L377.3438,121.562a8,8,0,0,0,0,14.0381l19.3554,10.585a31.389,31.389,0,0,1,14.7139,17.538l13.0478,38.6177a8,8,0,0,0,15.1582,0l13.0469-38.6177a31.3847,31.3847,0,0,1,14.7149-17.5376L486.7354,135.6a8.0005,8.0005,0,0,0,0-14.0381Zm-27.0323,10.5855a47.34,47.34,0,0,0-22.1953,26.4546l-5.4678,16.185-5.4687-16.185a47.3457,47.3457,0,0,0-22.1943-26.4546l-6.5215-3.5664,6.5215-3.5669A47.3431,47.3431,0,0,0,426.5713,98.56L432.04,82.375,437.5078,98.56a47.3437,47.3437,0,0,0,22.1953,26.4545l6.5215,3.5665Z"/></g></svg>