<?xml version="1.0" ?><svg viewBox="0 0 512 512" xmlns="http://www.w3.org/2000/svg"><g id="Primary_Tooth"><path d="M406.2656,205.9736h-3.1933a156.7282,156.7282,0,0,0-53.377-73.856,155.338,155.338,0,0,0-187.3906,0,156.7262,156.7262,0,0,0-53.376,73.856h-3.1943a50.0266,50.0266,0,0,0,0,100.0532h3.1943a156.7273,156.7273,0,0,0,53.376,73.8555,155.3364,155.3364,0,0,0,187.3906,0,156.7293,156.7293,0,0,0,53.377-73.8555h3.1933a50.0266,50.0266,0,0,0,0-100.0532Zm0,84.0532h-9.0371a8,8,0,0,0-7.6689,5.7212,140.4215,140.4215,0,0,1-49.5264,71.3808,139.3362,139.3362,0,0,1-168.0664,0,140.4171,140.4171,0,0,1-49.5254-71.3813,8.0006,8.0006,0,0,0-7.6689-5.7212h-9.0381a34.0266,34.0266,0,0,1,0-68.0532h9.0381a8.0007,8.0007,0,0,0,7.6689-5.7212,140.4136,140.4136,0,0,1,49.5254-71.3814,137.9626,137.9626,0,0,1,80.8306-28.1533,7.9647,7.9647,0,0,0,3.2026.6714,25.854,25.854,0,1,1-25.8545,25.854,8,8,0,0,0-16,0A41.8545,41.8545,0,1,0,291.5833,121.24a138.1424,138.1424,0,0,1,48.45,23.6313A140.4214,140.4214,0,0,1,389.56,216.2524a8,8,0,0,0,7.6689,5.7212h9.0371a34.0266,34.0266,0,0,1,0,68.0532Z"/><path d="M354.92,268.6952A300.2632,300.2632,0,0,0,256,252.44a300.2632,300.2632,0,0,0-98.92,16.2548,8,8,0,0,0-5.1895,9.25,106.5478,106.5478,0,0,0,208.2188,0A8,8,0,0,0,354.92,268.6952Zm-66.24,1.5038v29.6315a8,8,0,0,1-8,8H231.32a8,8,0,0,1-8-8V270.199a304.5194,304.5194,0,0,1,65.3594,0Z"/></g></svg>