<?xml version="1.0" ?><svg viewBox="0 0 512 512" xmlns="http://www.w3.org/2000/svg"><g id="Tooth_Filling"><path d="M249.9785,90.1947a8.0011,8.0011,0,0,0,12.043,0l21.6509-24.75A8,8,0,0,0,271.6294,54.91L264,63.6312V26.3558a8,8,0,1,0-16,0V63.6312L240.3706,54.91a8,8,0,0,0-12.043,10.5352Z"/><path d="M453.2534,372.6976a512.4639,512.4639,0,0,0-71.1863-23.8191l16.3743-84.0168a105.1936,105.1936,0,0,0-40.7793-105.2666,8.0014,8.0014,0,0,0-9.5659.0039l-30.94,15.1533a52.3474,52.3474,0,0,0-19.5483,16.5391C286.5273,206.8226,271.7505,215.3763,256,215.3763s-30.5259-8.5527-41.6064-24.0839a52.3543,52.3543,0,0,0-19.5484-16.54L163.9038,159.599a8.0014,8.0014,0,0,0-9.5659-.0039,105.1928,105.1928,0,0,0-40.7793,105.2656l16.3732,84.0132a512.698,512.698,0,0,0-70.0172,23.3384l-1.15.4775a8,8,0,0,0-4.9316,7.3887V483.6439a8,8,0,0,0,8,8H450.167a8,8,0,0,0,8-8V380.0785A8.0012,8.0012,0,0,0,453.2534,372.6976Zm-293.26-197.1982,27.8144,13.6221a36.3009,36.3009,0,0,1,13.5611,11.4638c13.9609,19.5684,33.8735,30.791,54.6313,30.791s40.6714-11.2236,54.6328-30.7919a36.3017,36.3017,0,0,1,13.5606-11.4629L352.0068,175.5a89.2288,89.2288,0,0,1,30.7305,86.3L350.4858,427.2816a22.7179,22.7179,0,0,1-44.0327,2.2666l-19.8564-65.2715a31.9814,31.9814,0,0,0-61.1934,0l-19.8564,65.2715a22.7186,22.7186,0,0,1-44.0337-2.2666L129.2627,261.7992A89.2313,89.2313,0,0,1,159.9932,175.4994Z"/><path d="M152.3745,127.3207a7.9964,7.9964,0,0,0,3.3545,3.0908l32.0791,15.71a36.3123,36.3123,0,0,1,13.5606,11.4638c13.9609,19.5684,33.8735,30.791,54.6313,30.791s40.6714-11.2236,54.6328-30.7919a36.3017,36.3017,0,0,1,13.5606-11.4629l32.0776-15.71a7.9964,7.9964,0,0,0,3.3545-3.0908l.2251-.378a7.9993,7.9993,0,0,0-2.084-10.5019c-1.6763-1.2529-3.1084-2.2715-4.5088-3.208-18.3584-12.2754-41.332-15.1035-63.104-7.791-.1626.0439-.3252.0947-.4868.1494a77.9948,77.9948,0,0,0-10.7583,4.6269,50.4147,50.4147,0,0,1-45.8169.001,77.6682,77.6682,0,0,0-8.6992-3.8877q-.5106-.1918-1.0332-.332a8.1051,8.1051,0,0,0-.7559-.3067c-21.9951-7.6376-45.271-4.8886-63.8618,7.54-1.4023.9385-2.835,1.957-4.5083,3.208a7.9993,7.9993,0,0,0-2.084,10.5019Zm62.4155-7.3418a8.01,8.01,0,0,0,4.9561,1.72h.0317a61.6782,61.6782,0,0,1,5.9034,2.7012,66.415,66.415,0,0,0,60.6376,0,61.7712,61.7712,0,0,1,8.1163-3.5264c.144-.041.2885-.0859.4316-.1348a56.5169,56.5169,0,0,1,41.7349,1.49l-19.4449,9.5234a52.3474,52.3474,0,0,0-19.5483,16.5391C286.5273,163.8226,271.7505,172.3763,256,172.3763s-30.5259-8.5527-41.6064-24.0839a52.3543,52.3543,0,0,0-19.5484-16.54l-19.4482-9.5244A56.19,56.19,0,0,1,214.79,119.9789Z"/></g></svg>