<?xml version="1.0" ?><svg viewBox="0 0 512 512" xmlns="http://www.w3.org/2000/svg"><g id="Wisdom_Tooth"><path d="M241.3257,136.6064h.021a8,8,0,0,0,7.98-8.02L249.26,102.58a8,8,0,0,0-8-7.98h-.021a8,8,0,0,0-7.9794,8.0205l.0659,26.0064A8,8,0,0,0,241.3257,136.6064Z"/><path d="M269.334,151.1161a7.9734,7.9734,0,0,0,5.6709-2.3574l18.3428-18.4355a8,8,0,0,0-11.3418-11.2852l-18.3428,18.4356a8,8,0,0,0,5.6709,13.6425Z"/><path d="M207.75,148.9291a8,8,0,0,0,11.2852-11.3418L200.6,119.2446a8,8,0,1,0-11.2851,11.3418Z"/><path d="M488.18,279.8246a604.9226,604.9226,0,0,0-62.0388-22.0532l-38.8533-57.6636A67.721,67.721,0,0,0,317.894,171.47h0a47.2372,47.2372,0,0,0-35.8535,32.8056,27.6608,27.6608,0,0,1-17.9424,17.9429,48.4079,48.4079,0,0,0-19.1273,11.1246c-.1949.0035-.39.01-.5845.0139A67.7674,67.7674,0,0,0,215.17,187.7934a47.2371,47.2371,0,0,0-48.5493-2.1548,27.6631,27.6631,0,0,1-25.375,0,47.2374,47.2374,0,0,0-48.5493,2.1548,67.719,67.719,0,0,0-28.8184,69.3174l1.3909,7.1367q-20.2241,6.7751-40.074,15.0063l-1.3569.5635a8,8,0,0,0-4.9322,7.3882V409.4a8,8,0,0,0,8,8H485.0938a8,8,0,0,0,8-8V287.2055A8.0013,8.0013,0,0,0,488.18,279.8246Zm-219.3877-42.31a43.6555,43.6555,0,0,0,28.5449-28.5454,31.267,31.267,0,0,1,23.6445-21.8h0a52.2643,52.2643,0,0,1,10.0962-.9863,51.714,51.714,0,0,1,42.94,22.8647l57.5395,85.396a10.7617,10.7617,0,0,1-13.99,15.5088l-36.7652-19.6133a22.6463,22.6463,0,0,0-30.6406,30.6406l19.6133,36.7647a10.7619,10.7619,0,0,1-15.5083,13.9907l-85.3975-57.5405a51.7532,51.7532,0,0,1-21.8774-53.0357A31.2668,31.2668,0,0,1,268.792,237.5141ZM101.6147,201.0776a31.2665,31.2665,0,0,1,32.1343-1.3042,43.6573,43.6573,0,0,0,40.3692,0,31.2629,31.2629,0,0,1,32.1342,1.3042A51.7546,51.7546,0,0,1,228.2842,254.05L208.5864,355.1215a10.7619,10.7619,0,0,1-20.8589,1.0737L175.6,316.329a22.6471,22.6471,0,0,0-43.333,0l-12.1279,39.8662A10.7619,10.7619,0,0,1,99.28,355.1215L79.5825,254.0488A51.753,51.753,0,0,1,101.6147,201.0776Z"/></g></svg>